<?xml version="1.0" encoding="utf-8"?>
<!-- Svg Vector Icons : http://www.onlinewebfonts.com/icon -->
<!DOCTYPE svg PUBLIC "-//W3C//DTD SVG 1.1//EN" "http://www.w3.org/Graphics/SVG/1.1/DTD/svg11.dtd">
<svg version="1.1" xmlns="http://www.w3.org/2000/svg" xmlns:xlink="http://www.w3.org/1999/xlink" x="0px" y="0px"
  viewBox="0 0 1000 1000" enable-background="new 0 0 1000 1000" xml:space="preserve"
  style="background-color:#222;border-radius:50px">
  <metadata> Svg Vector Icons : http://www.onlinewebfonts.com/icon </metadata>
  <g>
    <path fill="#fff"
      d="M974.5,763.5c0,0-19-21.3-43.3-11.2c0,0-10.1,2.9-24.1,17.5l1.4-2.2l-93.3-94.5l52.8-53.7c0,0,31-32.2-13.2-80.5c-44.2-48.3-75.1-27.2-84.6-19.8c-9.5,7.4-45.4,44.2-45.4,44.2l-68.1-69.8l246.9-221.3c0,0,38-26.4,41.7-59c3.7-32.6,13.6-158.5,13.6-158.5s-1.7-28.9-27.7-28.5c-26,0.4-156.5,13.6-156.5,13.6s-26.4-1.7-59,35.9C683,113.3,500.4,318,500.4,318L276.8,67c0,0-16.5-28.1-76.8-31.4c-60.3-3.3-123.4-9.5-123.4-9.5s-33-0.8-32.2,33C45.2,93,55.9,211.1,55.9,211.1s9.9,34.7,73.5,91.6c63.6,57,212.2,189.1,212.2,189.1l-64.4,71l-41.5-41.5c0,0-32.8-31.6-71.2,0.2c0,0-52.4,34.7-40.9,71.4c0,0,2.1,23.5,35.5,54.9l26,26l-92.1,91.2c0,0-39.6-35.5-67.7,0c-28.1,35.5-12.9,47.1,7,68.5c19.8,21.5,129.2,130.9,129.2,130.9s33.8,22.3,59.4-6.6c31.3-34.2-5-66.5-5-66.5l94.1-92.3c0,0,29.5,30.6,60.4,56.7c33.4,28.2,75.5-16.7,97.5-48.3c22-31.6-12.7-64.4-12.7-64.4l-35-35l79.5-75.2l82.4,72.8l-43,44.2c0,0-31.4,41.3,8.7,79.7c0,0,47.9,53.3,86.3,20.6l56.1-51.2l93.7,92.1c0,0-37.2,33.9-6.2,66.1c31,32.2,59,10.3,70.6-2.1c11.6-12.4,135-137.5,135-137.5S1002.9,788.2,974.5,763.5z M424.8,773.5c14.2,15.5-9.9,32.2-9.9,32.2c-16.7,17.3-28.5,5-28.5,5S344.9,770.1,327,753c-18-17-35.9,1.6-35.9,1.6S205.3,841,178.6,865.7c-26.6,24.8-2.1,48.5-2.1,48.5l0,0L58,797.7c0,0,39.6,25.6,76-11.1c36.3-36.7,92.9-91.6,92.9-91.6s26-18.2-9.1-51.2c-35.1-33-43.8-45.8-43.8-45.8s-15.7-11.6,10.3-33c0,0,11.6-20.6,33,3.3l51,50.6l0,0c0,0,0.1,0.1,0.1,0.1l9.3,9.2l0.1-0.1C309.6,659.3,412.8,760.4,424.8,773.5z M517.7,586.8c-20.4-18-42.7,5.9-42.7,5.9l-86.7,80.2L308.8,594l80.3-87.7c0,0,21.5-18.2-25.2-56.6C317.3,411.3,113.3,228,113.3,228s-14-9.9-16.9-55.3c-2.9-45.4-6.6-102-6.6-102l123,12.4c0,0,21.1-0.8,28.9,9.9c7.8,10.7,238.6,269.6,238.6,269.6s27.7,29.7,61.1-23.5L755.7,98c0,0,9.9-15.3,34.7-15.7c24.8-0.4,123-9.9,123-9.9L901,195.8c0,0,2.9,23.1-41.3,55.3c-44.2,32.2-241.9,217.6-241.9,217.6s-25.6,17.7,0,46.6c25.6,28.9,73.9,78,73.9,78l-76.6,78.7C597.9,657,535.3,602.2,517.7,586.8z M815.1,926.1c0,0,29.3-36.3-9.5-74.7s-92.9-92.5-92.9-92.5s-20.2-26-44.6-0.4c-24.4,25.6-50.8,50-50.8,50s-14.9,17.3-33.8-5s-13.2-25.6,11.6-48.7c24.8-23.1,195.7-194,195.7-194s9.5-12,23.1,0s16.1,16.9,16.1,16.9s11.6,8.7-4.5,24.4s-57.8,58.2-57.8,58.2s-16.1,15.2,15.7,47.2l99.2,96.6c0.1,0.1,11.6,26.1,48.9,3.4L815.1,926.1z" />
  </g>
</svg>