<?xml version="1.0" encoding="utf-8"?>
<!-- Svg Vector Icons : http://www.onlinewebfonts.com/icon -->
<!DOCTYPE svg PUBLIC "-//W3C//DTD SVG 1.1//EN" "http://www.w3.org/Graphics/SVG/1.1/DTD/svg11.dtd">
<svg version="1.1" xmlns="http://www.w3.org/2000/svg" xmlns:xlink="http://www.w3.org/1999/xlink" x="0px" y="0px"
  viewBox="0 0 1000 1000" enable-background="new 0 0 1000 1000" xml:space="preserve">
  <metadata> Svg Vector Icons : http://www.onlinewebfonts.com/icon </metadata>
  <g fill="#fff">
    <g transform="translate(0.000000,511.000000) scale(0.100000,-0.100000)">
      <path
        d="M4727.9,4596.9c-321.8-36.4-657-143.7-884.9-283.5c-160.9-95.8-339-279.7-406.1-417.6l-55.5-113l-5.7-1321.6l-3.8-1323.6l252.8-51.7c450.1-93.9,840.9-147.5,1070.7-147.5h93.9v919.4v919.4H4410c-362,0-385,1.9-465.5,44.1c-113,59.4-174.3,164.7-164.7,279.7c11.5,103.4,59.4,170.5,168.6,231.8l84.3,47.9h967.3h967.3l84.3-47.9c122.6-69,164.7-136,164.7-254.7c0-124.5-51.7-205-168.6-260.5c-74.7-36.4-116.8-40.2-459.7-40.2h-377.3v-921.3V934.6l168.6,13.4c277.7,21.1,590,65.1,929,128.3l319.9,61.3v1285.3c0,1428.9,3.8,1386.8-128.3,1578.3c-183.9,266.2-568.9,476.9-1036.2,565C5268.1,4602.7,4915.6,4618,4727.9,4596.9z" />
      <path
        d="M3429.3,917.4c-224.1-36.4-385-159-454-342.9c-17.2-47.9-34.5-88.1-36.4-91.9c-1.9-3.8-88.1,11.5-191.5,34.5c-522.9,113-1015.2,70.9-1342.7-116.8C1107.7,229.7,868.3-118.9,757.2-546c-28.7-107.3-53.6-153.2-126.4-233.7c-65.1-72.8-95.8-128.3-113-197.3c-13.4-53.6-19.2-103.4-13.4-109.2c7.7-5.7,34.5,15.3,61.3,47.9C671-911.9,958.3-825.7,1264.8-825.7c199.2,0,545.9-42.1,917.5-114.9l316-61.3l28.7,46c113,174.3,283.5,289.2,492.3,333.3c69,13.4,128.3,28.7,132.2,32.6c1.9,3.8,17.2,118.7,34.5,256.7c49.8,398.4,159,766.2,371.6,1248.9c5.7,11.5,1.9,21.1-5.8,21.1C3542.3,934.6,3486.7,926.9,3429.3,917.4z" />
      <path
        d="M6442.2,913.5c5.7-13.4,49.8-116.8,99.6-233.7c149.4-356.3,249-748.9,289.2-1145.4c11.5-118.8,15.3-130.3,63.2-139.8c172.4-34.5,231.8-53.6,314.1-99.6c88.1-47.9,201.1-155.2,264.3-250.9l28.7-46l316,59.4c432.9,84.3,530.6,97.7,783.4,111.1c375.4,21.1,660.8-44.1,808.3-185.8c44.1-40.2,82.4-74.7,88.1-74.7c15.3,0-17.2,141.7-47.9,201.1c-15.3,30.6-61.3,91.9-101.5,134.1c-53.6,57.5-78.5,109.2-105.4,210.7c-105.4,409.9-312.2,724-595.7,909.8C8315.5,580.2,7806,637.7,7260.1,519c-99.6-23-185.8-40.2-193.5-40.2c-7.7,0-19.2,23-26.8,53.6c-23,91.9-105.4,214.5-187.7,273.9C6742.9,884.8,6419.2,971,6442.2,913.5z" />
      <path
        d="M3678.3,409.8c0-197.3,95.8-455.9,226-616.8l82.4-101.5l-21.1-109.2c-9.6-59.4-44.1-147.5-72.8-195.4c-51.7-82.4-55.6-86.2-193.5-109.2c-176.2-28.7-348.6-86.2-471.2-157.1c-542.1-312.2-773.8-1068.8-630.2-2059.1c15.3-105.4,24.9-193.5,21.1-197.3c-3.8-1.9-44.1,40.2-88.1,95.8c-46,53.6-164.7,189.6-266.2,298.8l-183.9,197.3l-34.5-97.7c-199.2-590-810.2-831.3-1589.8-632.1c-84.3,21.1-195.4,55.6-249,76.6c-53.6,21.1-101.5,34.5-105.3,28.7c-19.2-19.2,93.9-296.9,180.1-438.6c105.3-174.3,396.5-492.3,612.9-664.7l141.7-114.9H2914h1875.2v515.3v517.2l-70.9-9.6c-247.1-32.6-360.1-55.6-513.3-105.4c-289.2-92-567-250.9-760.4-434.8l-72.8-69v810.2v808.3l143.7-124.5c235.6-204.9,452-339,676.1-415.6c141.7-47.9,402.2-82.4,509.5-67l88.1,13.4v446.3v446.3l-157.1,208.8c-86.2,114.9-176.2,237.5-203,272l-46,61.3h605.3c333.3,0,605.3-7.7,605.3-15.3c0-9.6-86.2-132.2-191.5-272l-191.5-254.7v-446.3V-2948l88.1-13.4c107.3-15.3,367.8,19.2,509.5,67c226,76.6,394.6,182,653.2,398.4l166.7,141.7v-806.4v-808.3l-95.8,86.2c-199.2,178.1-457.8,325.6-737.4,413.7c-153.2,49.8-266.3,72.8-511.4,105.4l-72.8,9.6v-517.2v-515.3h1917.3h1915.4l272,273.9c308.4,308.4,440.5,499.9,534.4,771.9c30.6,90,53.6,166.7,49.8,170.5c-3.8,3.8-80.4-19.2-168.6-49.8c-250.9-90-408-116.8-651.3-118.8c-187.7,0-241.3,7.6-369.7,51.7c-176.2,59.4-277.7,120.7-386.9,233.7c-101.5,103.4-176.2,227.9-231.8,386.9l-42.1,120.7l-147.5-168.6c-82.4-91.9-205-241.3-273.9-331.4c-120.7-157.1-193.5-243.3-170.5-199.2c5.7,11.5,21.1,141.7,30.7,287.3c67,948.1-220.3,1676-796.8,2017c-147.5,86.2-415.7,182-595.7,210.7c-67,11.5-134.1,28.7-149.4,40.2c-53.6,46-122.6,218.3-122.6,310.3c0,82.4,5.7,93.8,57.5,120.7c195.4,101.5,440.5,498,440.5,714.5c0,46-1.9,44.1-80.4-26.8C5737.3-32.7,5201-180.2,4588.1-27c-323.7,82.4-591.9,229.9-837,463.5l-72.8,69V409.8z" />
      <path
        d="M1040.7-1130.2c-235.6-32.6-406.1-149.4-484.6-327.5c-49.8-120.7-80.5-471.2-36.4-453.9c15.3,7.6,105.3,46,199.2,88.1c446.3,195.4,988.4,310.3,1467.2,310.3h151.3v101.5v101.5l-252.8,61.3C1634.5-1141.7,1264.8-1099.6,1040.7-1130.2z" />
      <path
        d="M8620.1-1124.5c-149.4-11.5-440.5-63.2-703-124.5l-254.8-61.3v-101.5v-101.5h151.3c478.9,0,1020.9-114.9,1467.2-310.3c93.9-42.1,183.9-80.5,197.3-86.2c53.6-23,13.4,362-53.6,492.3c-82.4,159-247.1,256.7-482.7,287.3C8802-1113,8784.8-1111.1,8620.1-1124.5z" />
      <path
        d="M1973.5-1745.1C933.5-1877.3,508.2-2099.5,510.1-2509.3c1.9-95.8,15.3-160.9,65.1-283.5l63.2-159l155.2,151.3c176.2,170.5,312.2,275.8,551.7,432.9c204.9,134.1,605.3,329.5,825.5,404.2c91.9,30.6,166.7,63.2,166.7,68.9c0,15.3-76.6,189.6-82.4,187.7C2253.2-1708.7,2126.8-1724,1973.5-1745.1z" />
      <path
        d="M7700.7-1796.8c-21.1-47.9-38.3-90-38.3-97.7c0-5.7,74.7-38.3,166.6-68.9c220.3-74.7,620.6-270.1,825.5-404.2c239.4-157.1,375.4-262.4,551.6-432.9l155.2-151.3l63.2,159c245.2,616.8-182,909.8-1547.7,1065l-139.8,15.3L7700.7-1796.8z" />
    </g>
  </g>
</svg>