<?xml version="1.0" encoding="utf-8"?>
<!-- Generator: Adobe Illustrator 15.1.0, SVG Export Plug-In . SVG Version: 6.00 Build 0)  -->
<!DOCTYPE svg PUBLIC "-//W3C//DTD SVG 1.1//EN" "http://www.w3.org/Graphics/SVG/1.1/DTD/svg11.dtd">
<svg version="1.1" id="Layer_1" xmlns:xodm="http://www.corel.com/coreldraw/odm/2003" xmlns="http://www.w3.org/2000/svg"
  xmlns:xlink="http://www.w3.org/1999/xlink" x="0px" y="0px" width="777.308px" height="230.793px"
  viewBox="50.417 64.454 777.308 230.793" enable-background="new 50.417 64.454 777.308 230.793" xml:space="preserve">
  <g>
    <polygon fill="#434242" points="316.738,276.704 319.133,276.704 319.133,83.342 316.738,83.342 	" />

    <radialGradient id="SVGID_1_" cx="4781.939" cy="-2029.6677" r="837.7832"
      gradientTransform="matrix(0.0365 0 0 0.0366 -14.5433 242.1957)" gradientUnits="userSpaceOnUse">
      <stop offset="0" style="stop-color:#4E97D2" />
      <stop offset="1" style="stop-color:#2C306A" />
    </radialGradient>
    <path fill="url(#SVGID_1_)" d="M184.68,196.291c-8.961,9.916-24.232,10.671-34.12,1.689c-9.892-8.98-10.658-24.308-1.715-34.227
		c8.957-9.918,24.239-10.664,34.127-1.686C192.86,171.05,193.622,186.372,184.68,196.291L184.68,196.291z" />

    <linearGradient id="SVGID_2_" gradientUnits="userSpaceOnUse" x1="4721.5737" y1="-5803.8359" x2="5835.8701"
      y2="-8191.7544" gradientTransform="matrix(0.0283 0 0 -0.0283 28.9344 -97.438)">
      <stop offset="0" style="stop-color:#4E97D2" />
      <stop offset="1" style="stop-color:#2C306A" />
    </linearGradient>
    <path fill="url(#SVGID_2_)" d="M173.05,97.141c2.033,1.99,3.902,4.029,5.6,6.063c9.723,11.647,14.268,23.092,14.268,23.092
		c6.201,1.15,11.997,1.469,17.402,1.203c0.35-0.021,0.673-0.021,1.03-0.045c0.323-0.027,0.619-0.067,0.942-0.094
		c11.963-1.077,27.499-5.662,41.702-19.899c0.488-0.488,0.976-1.01,1.46-1.521c-2.195-2.623-4.463-5.212-6.923-7.682
		c-41.262-41.128-105.66-44.715-150.991-10.82C133.106,70.2,157.747,82.09,173.05,97.141L173.05,97.141z" />

    <linearGradient id="SVGID_3_" gradientUnits="userSpaceOnUse" x1="2849.228" y1="-12375.4453" x2="1155.6501"
      y2="-9190.6367" gradientTransform="matrix(0.0283 0 0 -0.0283 28.9344 -97.438)">
      <stop offset="0" style="stop-color:#4E97D2" />
      <stop offset="1" style="stop-color:#2C306A" />
    </linearGradient>
    <path fill="url(#SVGID_3_)" d="M91.123,214.67c0.708-2.752,1.542-5.389,2.45-7.88c5.229-14.245,12.867-23.902,12.867-23.902
		c-2.103-5.949-4.728-11.127-7.662-15.669c-0.188-0.293-0.351-0.577-0.554-0.874c-0.182-0.262-0.367-0.505-0.549-0.77
		c-6.916-9.817-18.656-20.981-38.084-26.162c-0.67-0.18-1.36-0.337-2.047-0.504c-1.175,3.215-2.282,6.47-3.195,9.835
		c-14.983,56.299,14.109,113.864,66.122,136.17C87.762,262.732,85.742,235.449,91.123,214.67z" />

    <linearGradient id="SVGID_4_" gradientUnits="userSpaceOnUse" x1="8659.2129" y1="-10936.5801" x2="5467.1074"
      y2="-12570.8926" gradientTransform="matrix(0.0283 0 0 -0.0283 28.9344 -97.438)">
      <stop offset="0" style="stop-color:#4E97D2" />
      <stop offset="1" style="stop-color:#2C306A" />
    </linearGradient>
    <path fill="url(#SVGID_4_)" d="M234.142,226.988c-2.741,0.764-5.438,1.355-8.046,1.818c-14.952,2.593-27.135,0.81-27.135,0.81
		c-4.102,4.794-7.27,9.658-9.743,14.468c-0.151,0.312-0.316,0.595-0.475,0.917c-0.137,0.292-0.253,0.569-0.391,0.859
		c-5.05,10.898-8.843,26.647-3.614,46.065c0.175,0.665,0.388,1.347,0.588,2.026c3.37-0.591,6.744-1.265,10.11-2.157
		c56.249-15.169,91.561-69.148,84.865-125.35C277.446,205.864,254.832,221.259,234.142,226.988L234.142,226.988z" />

    <linearGradient id="SVGID_5_" gradientUnits="userSpaceOnUse" x1="2224.9702" y1="-8874.5586" x2="3634.5154"
      y2="-6606.4131" gradientTransform="matrix(0.0283 0 0 -0.0283 28.9344 -97.438)">
      <stop offset="0" style="stop-color:#4E97D2" />
      <stop offset="1" style="stop-color:#2C306A" />
    </linearGradient>
    <path fill="url(#SVGID_5_)" d="M97.54,87.437c0,0-25.108,15.724-38.229,47.286c3.439,0.598,38.462,7.658,51.511,46.579
		c3.191-2.035,12.986-9.773,19.569-31.094c7.957-25.774,23.067-44.791,42.658-53.067C173.05,97.141,148.237,61.771,97.54,87.437
		L97.54,87.437z" />

    <linearGradient id="SVGID_6_" gradientUnits="userSpaceOnUse" x1="5363.4399" y1="-12122.0215" x2="2858.1033"
      y2="-12619.1553" gradientTransform="matrix(0.0283 0 0 -0.0283 28.9344 -97.438)">
      <stop offset="0" style="stop-color:#4E97D2" />
      <stop offset="1" style="stop-color:#2C306A" />
    </linearGradient>
    <path fill="url(#SVGID_6_)" d="M177.097,273.007c-0.007-13.066,3.621-30.359,18.133-46.651l0.162-0.251
		c-2.368-2.531-10.661-8.768-31.99-3.907c-26.296,5.997-55.314,5.303-72.279-7.527c0,0-18.223,39.175,29.347,70.244
		c0,0,26.135,13.863,59.994,9.475C179.852,292.702,177.1,284.475,177.097,273.007L177.097,273.007z" />

    <linearGradient id="SVGID_7_" gradientUnits="userSpaceOnUse" x1="7127.1255" y1="-8116.0068" x2="8094.9355"
      y2="-10967.2949" gradientTransform="matrix(0.0283 0 0 -0.0283 28.9344 -97.438)">
      <stop offset="0" style="stop-color:#4E97D2" />
      <stop offset="1" style="stop-color:#2C306A" />
    </linearGradient>
    <path fill="url(#SVGID_7_)" d="M258.48,109.712c-3.742,4.54-21.521,23.169-51.192,23.194c-4.775,0-9.846-0.485-15.206-1.594
		l-0.254-0.06c-0.979,3.591-1.788,13.758,12.698,29.372c18.333,19.778,32.24,45.256,29.615,66.362c0,0,43.042-3.807,46.159-60.543
		C280.301,166.445,279.239,136.85,258.48,109.712z" />
    <g>
      <path fill="#434242" d="M354.626,131.399h10.45c4,0,7.025,0.792,9.075,2.375c2.05,1.583,3.075,3.842,3.075,6.775
			c0,1.367-0.192,2.567-0.575,3.6c-0.383,1.034-0.909,1.934-1.575,2.7c-0.667,0.767-1.45,1.4-2.35,1.9s-1.867,0.867-2.9,1.1
			c0.8,0.3,1.533,0.975,2.2,2.025c0.667,1.05,1.333,2.333,2,3.85c0.667,1.517,1.375,3.2,2.125,5.05s1.608,3.725,2.575,5.625h-5.2
			c-1.067-2.133-1.942-4-2.625-5.6c-0.684-1.6-1.258-2.975-1.725-4.125s-0.883-2.1-1.25-2.85c-0.367-0.75-0.783-1.341-1.25-1.775
			c-0.467-0.433-1.017-0.741-1.65-0.925c-0.633-0.183-1.45-0.275-2.45-0.275h-3.45v15.55h-4.5V131.399z M359.126,146.649h6.25
			c2.133,0,3.841-0.425,5.125-1.275c1.283-0.85,1.925-2.308,1.925-4.375c0-1.733-0.592-3.066-1.775-4
			c-1.184-0.933-3.125-1.4-5.825-1.4h-5.7V146.649z" />
      <path fill="#434242" d="M404.427,166.899c-2.434,0-4.625-0.417-6.575-1.25c-1.95-0.833-3.617-2.025-5-3.575
			c-1.383-1.55-2.442-3.441-3.175-5.675c-0.734-2.233-1.1-4.733-1.1-7.5c0-2.8,0.383-5.308,1.15-7.525
			c0.767-2.216,1.841-4.1,3.225-5.65c1.383-1.55,3.042-2.742,4.975-3.575c1.933-0.833,4.05-1.25,6.35-1.25
			c2.6,0,4.891,0.442,6.875,1.325c1.982,0.883,3.65,2.117,5,3.7c1.35,1.583,2.375,3.484,3.075,5.7c0.7,2.217,1.05,4.642,1.05,7.275
			c0,2.967-0.4,5.575-1.2,7.825s-1.9,4.125-3.3,5.625c-1.4,1.5-3.067,2.633-5,3.4C408.843,166.515,406.727,166.899,404.427,166.899z
			 M404.876,162.699c3.3,0,5.892-1.158,7.775-3.475c1.883-2.316,2.825-5.758,2.825-10.325c0-2.4-0.258-4.466-0.775-6.2
			c-0.517-1.732-1.259-3.166-2.225-4.3c-0.967-1.133-2.142-1.966-3.525-2.5c-1.384-0.533-2.942-0.8-4.675-0.8
			c-1.534,0-2.967,0.283-4.3,0.85c-1.333,0.567-2.483,1.417-3.45,2.55c-0.967,1.133-1.734,2.567-2.3,4.3
			c-0.567,1.734-0.85,3.767-0.85,6.1c0,2.3,0.275,4.317,0.825,6.05c0.55,1.734,1.325,3.175,2.325,4.325s2.208,2.009,3.625,2.575
			C401.568,162.416,403.143,162.699,404.876,162.699z" />
      <path fill="#434242" d="M432.277,160.199c0.8,0.567,1.892,1.125,3.275,1.675c1.383,0.55,2.975,0.825,4.775,0.825
			c2.333,0,4.066-0.5,5.2-1.5c1.133-1,1.7-2.416,1.7-4.25c0-1-0.125-1.841-0.375-2.525c-0.25-0.683-0.65-1.283-1.2-1.8
			c-0.55-0.517-1.25-0.975-2.1-1.375c-0.851-0.4-1.875-0.833-3.075-1.3l-1.2-0.45c-1.267-0.5-2.375-1.025-3.325-1.575
			c-0.95-0.55-1.733-1.2-2.35-1.95c-0.617-0.75-1.084-1.625-1.4-2.625c-0.317-1-0.475-2.167-0.475-3.5
			c0-2.833,0.991-5.033,2.975-6.6c1.983-1.566,4.725-2.35,8.225-2.35c1.067,0,2.067,0.075,3,0.225
			c0.933,0.15,1.758,0.325,2.475,0.525s1.308,0.409,1.775,0.625c0.466,0.217,0.8,0.392,1,0.525l-1.15,3.85
			c-1.268-0.6-2.55-1.008-3.85-1.225c-1.301-0.216-2.484-0.325-3.55-0.325c-1.967,0-3.475,0.392-4.525,1.175
			c-1.05,0.784-1.575,1.975-1.575,3.575c0,0.7,0.083,1.325,0.25,1.875c0.167,0.55,0.491,1.075,0.975,1.575
			c0.483,0.5,1.158,0.992,2.025,1.475c0.866,0.483,1.983,0.992,3.35,1.525l1.301,0.5c1.532,0.6,2.791,1.234,3.774,1.9
			c0.983,0.667,1.758,1.4,2.325,2.2c0.566,0.8,0.958,1.675,1.175,2.625s0.325,1.992,0.325,3.125c0,1.667-0.275,3.134-0.825,4.4
			c-0.55,1.267-1.325,2.333-2.325,3.2c-1,0.867-2.191,1.525-3.574,1.975c-1.384,0.45-2.909,0.675-4.575,0.675
			c-1.867,0-3.643-0.242-5.325-0.725c-1.684-0.483-3.142-1.125-4.375-1.925L432.277,160.199z" />
      <path fill="#434242" d="M484.076,166.399h-19.55v-35h19.55v4.2h-15.05v10.6h13.75v4.1h-13.75v11.9h15.05V166.399z" />
      <path fill="#434242" d="M523.526,166.399h-5.8l-16.4-29.15v29.15h-4.5v-35h6.3l15.9,28.4v-28.4h4.5V166.399z" />
      <path fill="#434242" d="M557.075,166.399h-19.55v-35h19.55v4.2h-15.05v10.6h13.75v4.1h-13.75v11.9h15.05V166.399z" />
      <path fill="#434242" d="M569.825,131.399h10.45c4,0,7.024,0.792,9.075,2.375c2.05,1.583,3.074,3.842,3.074,6.775
			c0,1.367-0.191,2.567-0.574,3.6c-0.384,1.034-0.909,1.934-1.575,2.7c-0.667,0.767-1.45,1.4-2.351,1.9
			c-0.899,0.5-1.867,0.867-2.899,1.1c0.8,0.3,1.532,0.975,2.2,2.025c0.666,1.05,1.332,2.333,2,3.85
			c0.666,1.517,1.375,3.2,2.125,5.05s1.607,3.725,2.574,5.625h-5.199c-1.067-2.133-1.942-4-2.625-5.6
			c-0.684-1.6-1.259-2.975-1.726-4.125s-0.884-2.1-1.25-2.85c-0.367-0.75-0.783-1.341-1.25-1.775
			c-0.467-0.433-1.017-0.741-1.649-0.925c-0.634-0.183-1.45-0.275-2.45-0.275h-3.45v15.55h-4.5V131.399z M574.325,146.649h6.25
			c2.133,0,3.842-0.425,5.125-1.275s1.925-2.308,1.925-4.375c0-1.733-0.592-3.066-1.774-4c-1.184-0.933-3.125-1.4-5.825-1.4h-5.7
			V146.649z" />
      <path fill="#434242" d="M604.424,149.349c0-2.967,0.4-5.6,1.2-7.9c0.8-2.3,1.95-4.232,3.45-5.8c1.5-1.566,3.308-2.75,5.425-3.55
			c2.116-0.8,4.475-1.2,7.075-1.2c2,0,3.625,0.142,4.875,0.425c1.25,0.284,2.291,0.592,3.125,0.925l-0.851,3.95
			c-1.1-0.4-2.217-0.683-3.35-0.85c-1.134-0.167-2.25-0.25-3.351-0.25c-4.167,0-7.342,1.167-9.524,3.5
			c-2.184,2.333-3.275,5.767-3.275,10.3c0,4.367,1.175,7.759,3.525,10.175c2.35,2.417,5.625,3.625,9.825,3.625
			c0.633,0,1.341-0.058,2.125-0.175c0.782-0.116,1.541-0.275,2.274-0.475v-9.6h-7.35v-4.2h11.85v16.6
			c-1.167,0.633-2.533,1.133-4.1,1.5c-1.567,0.366-3.367,0.55-5.4,0.55c-2.634,0-5.033-0.384-7.2-1.15
			c-2.167-0.767-4.017-1.9-5.55-3.4s-2.717-3.342-3.55-5.525C604.84,154.641,604.424,152.149,604.424,149.349z" />
      <path fill="#434242" d="M658.824,166.899c-2.434,0-4.625-0.417-6.574-1.25c-1.95-0.833-3.617-2.025-5-3.575
			c-1.384-1.55-2.442-3.441-3.176-5.675c-0.733-2.233-1.1-4.733-1.1-7.5c0-2.8,0.383-5.308,1.15-7.525
			c0.766-2.216,1.841-4.1,3.225-5.65c1.383-1.55,3.041-2.742,4.975-3.575c1.934-0.833,4.051-1.25,6.351-1.25
			c2.6,0,4.892,0.442,6.875,1.325c1.982,0.883,3.649,2.117,5,3.7c1.35,1.583,2.375,3.484,3.075,5.7
			c0.699,2.217,1.05,4.642,1.05,7.275c0,2.967-0.4,5.575-1.2,7.825s-1.9,4.125-3.3,5.625c-1.4,1.5-3.067,2.633-5,3.4
			C663.241,166.515,661.125,166.899,658.824,166.899z M659.274,162.699c3.3,0,5.892-1.158,7.775-3.475
			c1.883-2.316,2.825-5.758,2.825-10.325c0-2.4-0.259-4.466-0.775-6.2c-0.518-1.732-1.259-3.166-2.225-4.3
			c-0.968-1.133-2.143-1.966-3.525-2.5c-1.384-0.533-2.942-0.8-4.675-0.8c-1.534,0-2.968,0.283-4.3,0.85
			c-1.334,0.567-2.484,1.417-3.45,2.55c-0.968,1.133-1.733,2.567-2.3,4.3c-0.567,1.734-0.851,3.767-0.851,6.1
			c0,2.3,0.275,4.317,0.825,6.05c0.55,1.734,1.325,3.175,2.325,4.325s2.208,2.009,3.625,2.575
			C655.965,162.416,657.541,162.699,659.274,162.699z" />
      <path fill="#434242" d="M705.575,157.049h-14.95l-3.4,9.35h-4.55l13.35-35h4.5l13.101,35h-4.7L705.575,157.049z M692.075,152.949
			h12.05l-5.851-16.45h-0.199L692.075,152.949z" />
      <path fill="#434242" d="M731.474,166.399h-4.5v-30.8h-10.35v-4.2h25.2v4.2h-10.351V166.399z" />
      <path fill="#434242" d="M765.173,166.899c-2.434,0-4.625-0.417-6.574-1.25c-1.95-0.833-3.617-2.025-5-3.575
			c-1.384-1.55-2.442-3.441-3.176-5.675c-0.733-2.233-1.1-4.733-1.1-7.5c0-2.8,0.383-5.308,1.15-7.525
			c0.766-2.216,1.841-4.1,3.225-5.65c1.383-1.55,3.041-2.742,4.975-3.575c1.934-0.833,4.051-1.25,6.351-1.25
			c2.6,0,4.892,0.442,6.875,1.325c1.982,0.883,3.649,2.117,5,3.7c1.35,1.583,2.375,3.484,3.075,5.7
			c0.699,2.217,1.05,4.642,1.05,7.275c0,2.967-0.4,5.575-1.2,7.825s-1.9,4.125-3.3,5.625c-1.4,1.5-3.067,2.633-5,3.4
			C769.59,166.515,767.474,166.899,765.173,166.899z M765.624,162.699c3.3,0,5.892-1.158,7.775-3.475
			c1.883-2.316,2.825-5.758,2.825-10.325c0-2.4-0.259-4.466-0.775-6.2c-0.518-1.732-1.259-3.166-2.225-4.3
			c-0.968-1.133-2.143-1.966-3.525-2.5c-1.384-0.533-2.942-0.8-4.675-0.8c-1.534,0-2.968,0.283-4.3,0.85
			c-1.334,0.567-2.484,1.417-3.45,2.55c-0.968,1.133-1.733,2.567-2.3,4.3c-0.567,1.734-0.851,3.767-0.851,6.1
			c0,2.3,0.275,4.317,0.825,6.05c0.55,1.734,1.325,3.175,2.325,4.325s2.208,2.009,3.625,2.575
			C762.315,162.416,763.89,162.699,765.624,162.699z" />
      <path fill="#434242" d="M827.724,166.399h-4.5l-2.15-27.35l-8.85,27.35h-4.7l-8.8-27.25l-2.2,27.25h-4.5l3-35h5.5l9.45,30.1
			l9.25-30.1h5.5L827.724,166.399z" />
    </g>
    <g>
      <path fill="#20599D" d="M354.612,203.936h8.36c3.2,0,5.62,0.635,7.26,1.9c1.64,1.268,2.46,3.074,2.46,5.42
			c0,1.094-0.154,2.054-0.46,2.881c-0.307,0.826-0.727,1.547-1.26,2.159c-0.534,0.614-1.16,1.12-1.88,1.521
			c-0.72,0.399-1.494,0.693-2.32,0.879c0.64,0.24,1.227,0.781,1.76,1.621c0.533,0.84,1.066,1.867,1.6,3.08
			c0.533,1.213,1.1,2.56,1.7,4.039c0.6,1.48,1.287,2.98,2.06,4.5h-4.16c-0.854-1.705-1.554-3.199-2.1-4.479
			c-0.547-1.28-1.007-2.38-1.38-3.3c-0.374-0.92-0.707-1.68-1-2.28c-0.294-0.601-0.627-1.073-1-1.42
			c-0.374-0.347-0.814-0.593-1.32-0.74c-0.507-0.146-1.16-0.22-1.96-0.22h-2.76v12.439h-3.6V203.936z M358.212,216.137h5
			c1.706,0,3.073-0.341,4.1-1.021c1.026-0.681,1.54-1.847,1.54-3.5c0-1.386-0.474-2.453-1.42-3.2c-0.947-0.746-2.5-1.12-4.66-1.12
			h-4.56V216.137z" />
      <path fill="#20599D" d="M394.093,232.336c-1.947,0-3.7-0.334-5.26-1s-2.894-1.62-4-2.859c-1.107-1.24-1.954-2.754-2.54-4.541
			c-0.586-1.785-0.88-3.785-0.88-6c0-2.24,0.306-4.246,0.92-6.02c0.613-1.773,1.473-3.279,2.58-4.52
			c1.106-1.24,2.433-2.193,3.98-2.86c1.546-0.667,3.24-1,5.08-1c2.08,0,3.913,0.354,5.5,1.06c1.586,0.707,2.92,1.693,4,2.961
			c1.08,1.266,1.9,2.786,2.46,4.56s0.84,3.714,0.84,5.819c0,2.374-0.32,4.461-0.96,6.26c-0.64,1.801-1.52,3.301-2.64,4.5
			c-1.12,1.201-2.454,2.107-4,2.721C397.626,232.03,395.933,232.336,394.093,232.336z M394.453,228.977
			c2.64,0,4.713-0.927,6.22-2.781c1.506-1.853,2.26-4.605,2.26-8.26c0-1.92-0.207-3.572-0.62-4.959
			c-0.414-1.387-1.007-2.533-1.78-3.44c-0.774-0.906-1.714-1.573-2.82-2c-1.107-0.427-2.354-0.64-3.74-0.64
			c-1.227,0-2.374,0.227-3.44,0.68c-1.067,0.453-1.987,1.134-2.76,2.04c-0.773,0.907-1.387,2.054-1.84,3.44
			c-0.454,1.387-0.68,3.014-0.68,4.879c0,1.84,0.22,3.454,0.66,4.84c0.44,1.388,1.06,2.541,1.86,3.461
			c0.8,0.92,1.767,1.606,2.9,2.06C391.806,228.75,393.066,228.977,394.453,228.977z" />
      <path fill="#20599D"
        d="M416.013,226.977c0.64,0.453,1.513,0.899,2.62,1.34c1.106,0.439,2.38,0.66,3.82,0.66
			c1.866,0,3.253-0.4,4.16-1.201c0.906-0.799,1.36-1.933,1.36-3.399c0-0.8-0.1-1.474-0.3-2.021c-0.2-0.546-0.52-1.025-0.96-1.439
			c-0.44-0.413-1-0.779-1.68-1.1c-0.68-0.32-1.5-0.666-2.46-1.041l-0.96-0.359c-1.014-0.4-1.9-0.82-2.66-1.26
			c-0.76-0.44-1.387-0.961-1.88-1.561c-0.494-0.6-0.867-1.3-1.12-2.1c-0.254-0.801-0.38-1.733-0.38-2.801
			c0-2.266,0.793-4.025,2.38-5.279c1.586-1.253,3.78-1.88,6.58-1.88c0.853,0,1.653,0.06,2.4,0.18c0.746,0.12,1.406,0.261,1.98,0.421
			c0.573,0.159,1.046,0.326,1.42,0.5c0.373,0.173,0.64,0.313,0.8,0.42l-0.92,3.08c-1.014-0.48-2.04-0.807-3.08-0.98
			s-1.987-0.26-2.84-0.26c-1.574,0-2.78,0.313-3.62,0.939c-0.84,0.627-1.26,1.58-1.26,2.859c0,0.561,0.066,1.061,0.2,1.5
			c0.133,0.441,0.394,0.861,0.78,1.261c0.386,0.399,0.926,0.794,1.62,1.181c0.693,0.387,1.586,0.793,2.68,1.219l1.04,0.4
			c1.227,0.48,2.233,0.986,3.02,1.52c0.786,0.534,1.406,1.121,1.86,1.761c0.453,0.64,0.767,1.34,0.94,2.101
			c0.173,0.76,0.26,1.594,0.26,2.5c0,1.333-0.22,2.506-0.66,3.52s-1.06,1.867-1.86,2.56c-0.8,0.694-1.754,1.22-2.86,1.58
			c-1.107,0.36-2.327,0.54-3.66,0.54c-1.494,0-2.914-0.193-4.26-0.58c-1.347-0.387-2.514-0.9-3.5-1.54L416.013,226.977z" />
      <path fill="#20599D" d="M456.972,224.456h-11.96l-2.72,7.479h-3.64l10.68-28h3.601l10.479,28h-3.76L456.972,224.456z
			 M446.172,221.176h9.64l-4.68-13.16h-0.16L446.172,221.176z" />
      <path fill="#20599D" d="M477.332,231.936h-3.6v-24.64h-8.28v-3.36h20.16v3.36h-8.28V231.936z" />
      <path fill="#20599D" d="M503.931,232.336c-1.947,0-3.7-0.334-5.26-1c-1.561-0.666-2.895-1.62-4-2.859
			c-1.107-1.24-1.954-2.754-2.54-4.541c-0.587-1.785-0.88-3.785-0.88-6c0-2.24,0.306-4.246,0.92-6.02
			c0.613-1.773,1.473-3.279,2.58-4.52c1.105-1.24,2.433-2.193,3.979-2.86c1.546-0.667,3.24-1,5.08-1c2.08,0,3.913,0.354,5.5,1.06
			c1.586,0.707,2.92,1.693,4,2.961c1.08,1.266,1.9,2.786,2.46,4.56c0.561,1.773,0.84,3.714,0.84,5.819
			c0,2.374-0.319,4.461-0.96,6.26c-0.64,1.801-1.52,3.301-2.64,4.5c-1.12,1.201-2.454,2.107-4,2.721
			C507.464,232.03,505.771,232.336,503.931,232.336z M504.292,228.977c2.64,0,4.713-0.927,6.22-2.781
			c1.506-1.853,2.26-4.605,2.26-8.26c0-1.92-0.207-3.572-0.62-4.959s-1.007-2.533-1.78-3.44c-0.773-0.906-1.713-1.573-2.819-2
			c-1.107-0.427-2.354-0.64-3.74-0.64c-1.227,0-2.374,0.227-3.44,0.68s-1.986,1.134-2.76,2.04c-0.773,0.907-1.387,2.054-1.84,3.44
			c-0.454,1.387-0.68,3.014-0.68,4.879c0,1.84,0.22,3.454,0.66,4.84c0.439,1.388,1.06,2.541,1.859,3.461s1.767,1.606,2.9,2.06
			C501.644,228.75,502.904,228.977,504.292,228.977z" />
      <path fill="#20599D" d="M553.612,231.936h-3.6l-1.721-21.879l-7.08,21.879h-3.76l-7.04-21.799l-1.76,21.799h-3.6l2.399-28h4.4
			l7.56,24.08l7.4-24.08h4.399L553.612,231.936z" />
    </g>
  </g>
</svg>